# xmcd
#
# Track frame offsets:
#	150
#	15495
#	32605
#	47062
#	62275
#	80450
#	99792
#	114765
#	131930
#	149880
#
# Disc length: 2184 seconds
#
# Revision: 2
# Processed by: cddbd v1.5.2PL0 Copyright (c) Steve Scherf et al.
# Submitted via: dBpowerAMP V4.0
#
DISCID=7a08860a
DTITLE=Chad Brock - Yes!
DYEAR=2000
DGENRE=Country
TTITLE0=Yes!
TTITLE1=Hey Mister
TTITLE2=Young Enough To Know It All
TTITLE3=The Visit
TTITLE4=She Does
TTITLE5=Love Lives (Events Of The Heart)
TTITLE6=This
TTITLE7=You Had To Be There
TTITLE8=A Country Boy Can Survive (Y2K Version)
TTITLE9=If I Were You 
EXTD=
EXTT0=
EXTT1=
EXTT2=
EXTT3=
EXTT4=
EXTT5=
EXTT6=
EXTT7=
EXTT8=
EXTT9=
PLAYORDER=
